<?xml version="1.0" standalone="no"?>
<!DOCTYPE svg PUBLIC "-//W3C//DTD SVG 20010904//EN"
 "http://www.w3.org/TR/2001/REC-SVG-20010904/DTD/svg10.dtd">
<svg version="1.0" xmlns="http://www.w3.org/2000/svg"
 width="1000.000000pt" height="327.000000pt" viewBox="0 0 1000.000000 327.000000"
 preserveAspectRatio="xMidYMid meet">

<g transform="translate(0.000000,327.000000) scale(0.100000,-0.100000)"
fill="#da251c" stroke="none">
<path d="M350 3256 c-78 -17 -142 -51 -206 -108 -64 -59 -99 -115 -125 -199
-18 -58 -19 -115 -19 -1314 0 -1199 1 -1256 19 -1314 26 -85 61 -140 126 -199
65 -59 137 -96 219 -111 79 -15 2460 -15 2537 -1 135 25 259 121 320 245 l34
70 0 1310 0 1310 -34 70 c-61 124 -185 220 -320 245 -82 15 -2479 12 -2551 -4z
m1067 -606 c40 -102 116 -297 170 -435 l98 -250 498 -3 497 -2 0 -73 0 -72
-183 -275 c-418 -631 -612 -925 -615 -932 -2 -5 181 -8 407 -8 l411 0 0 -80 0
-80 -520 0 -520 0 0 73 1 72 179 270 c429 648 611 927 608 931 -8 7 -693 4
-691 -3 1 -5 42 -109 91 -233 49 -124 87 -228 85 -232 -7 -14 -170 -9 -180 5
-5 6 -45 104 -88 217 -43 113 -85 217 -92 233 l-14 27 -294 0 c-222 0 -296 -3
-302 -12 -4 -7 -49 -116 -98 -243 l-90 -230 -88 -3 c-62 -2 -87 1 -87 9 0 6
134 351 297 766 l297 754 75 -3 76 -3 72 -185z"/>
<path d="M1241 2543 c-13 -43 -62 -181 -111 -308 -48 -126 -90 -240 -94 -252
l-7 -23 239 0 240 0 -89 237 c-49 130 -103 278 -120 330 -17 51 -32 93 -33 93
-2 0 -13 -35 -25 -77z"/>
<path d="M6770 2294 c0 -129 12 -134 330 -134 132 0 240 -2 240 -5 0 -2 -142
-216 -315 -474 -173 -258 -315 -472 -315 -475 0 -3 209 -6 465 -6 l465 0 0 75
0 75 -331 0 c-214 0 -329 4 -327 10 2 5 145 217 318 471 173 254 316 465 318
470 2 5 -152 10 -350 11 l-353 3 -3 23 c-3 20 -8 22 -73 22 l-69 0 0 -66z"/>
<path d="M4144 2328 c-4 -13 -37 -95 -74 -183 -37 -88 -91 -216 -120 -285
-124 -295 -214 -510 -245 -582 l-33 -78 78 0 78 0 51 128 c29 70 55 134 60
142 7 13 42 15 216 15 l208 0 56 -142 56 -143 88 0 c48 0 87 4 87 8 0 5 -22
60 -49 123 -27 63 -83 197 -126 299 -43 102 -108 257 -145 345 -37 88 -87 208
-111 267 -44 108 -62 128 -75 86z m90 -513 c36 -93 66 -176 66 -182 0 -10 -36
-13 -145 -13 -109 0 -145 3 -145 13 0 24 144 367 151 360 5 -5 37 -84 73 -178z"/>
<path d="M5170 1851 c-40 -13 -105 -48 -138 -76 l-30 -25 -7 50 -7 50 -64 0
-64 0 0 -480 0 -481 73 3 72 3 3 188 c1 103 6 187 11 187 4 0 16 -9 25 -19 34
-38 116 -65 196 -65 102 0 167 23 234 85 98 90 130 226 86 370 -18 61 -30 81
-79 130 -44 44 -70 61 -111 73 -56 17 -157 20 -200 7z m136 -137 c18 -9 49
-33 68 -54 125 -139 26 -350 -164 -350 -118 0 -191 65 -198 176 -2 35 -1 80 2
99 8 43 56 99 105 125 46 24 140 26 187 4z"/>
<path d="M6102 1846 c-49 -16 -85 -38 -124 -74 l-27 -25 -5 24 c-3 13 -7 35
-8 49 -3 24 -6 25 -68 25 l-65 0 0 -475 0 -475 73 -3 72 -3 0 191 c0 104 2
190 4 190 2 0 27 -15 55 -34 92 -62 219 -70 326 -22 68 31 115 74 150 138 25
45 30 67 33 144 7 163 -47 273 -165 330 -69 34 -180 43 -251 20z m159 -139
c68 -36 103 -93 107 -175 3 -56 0 -74 -20 -112 -36 -67 -94 -103 -172 -108
-82 -5 -126 10 -170 58 -71 78 -75 199 -10 286 54 73 178 96 265 51z"/>
<path d="M8053 1842 c-116 -42 -189 -123 -219 -245 -14 -57 -15 -79 -6 -129
34 -180 155 -280 342 -282 97 0 144 12 213 57 207 136 184 474 -39 583 -74 36
-213 44 -291 16z m178 -114 c143 -49 191 -232 92 -348 -43 -50 -85 -70 -147
-70 -56 0 -93 14 -129 48 -58 55 -83 134 -66 210 15 67 53 117 112 147 56 28
87 31 138 13z"/>
<path d="M9061 1842 c-25 -9 -70 -41 -102 -69 -31 -29 -59 -53 -62 -53 -3 0
-7 26 -9 58 l-3 57 -65 0 -65 0 -3 -317 -2 -318 75 0 75 0 0 158 c0 171 6 206
46 263 30 44 111 89 160 89 27 0 32 4 38 31 3 17 6 51 6 75 0 39 -2 44 -22 43
-13 0 -43 -8 -67 -17z"/>
<path d="M9513 1841 c-112 -38 -180 -109 -215 -224 -50 -166 34 -348 190 -408
67 -26 203 -31 267 -10 246 81 312 410 116 582 -82 73 -243 100 -358 60z m178
-113 c89 -30 143 -109 141 -207 0 -69 -11 -98 -54 -146 -39 -46 -82 -65 -142
-65 -56 0 -93 14 -129 48 -114 107 -89 295 48 359 56 26 87 28 136 11z"/>
</g>
</svg>
