<svg width="20" height="20" viewBox="0 0 20 20" fill="none" xmlns="http://www.w3.org/2000/svg">
<path d="M9.99 5.00045e-06C8.01262 0.00198239 6.0802 0.590152 4.43703 1.69017C2.79385 2.79018 1.51369 4.35266 0.758342 6.18009C0.00299907 8.00753 -0.193608 10.0179 0.193372 11.957C0.580353 13.8962 1.53355 15.6771 2.93247 17.0746C4.33139 18.4721 6.11324 19.4235 8.05278 19.8086C9.99231 20.1936 12.0025 19.995 13.8291 19.2378C15.6558 18.4807 17.217 17.1989 18.3154 15.5547C19.4138 13.9104 20 11.9774 20 10C20 8.68594 19.741 7.38477 19.2378 6.17086C18.7347 4.95695 17.9972 3.85412 17.0675 2.9254C16.1379 1.99668 15.0343 1.2603 13.8199 0.758338C12.6055 0.256379 11.3041 -0.00130906 9.99 5.00045e-06ZM14.23 16L10 13.45L5.77 16L6.89 11.19L3.16 7.96L8.08 7.54L10 3.00001L11.92 7.53L16.84 7.95L13.11 11.18L14.23 16Z" fill="#DB241B"/>
</svg>
