<?xml version="1.0" encoding="UTF-8"?>
<svg xmlns="http://www.w3.org/2000/svg" width="70" height="70" viewBox="0 0 70 70" fill="none">
  <g clip-path="url(#clip0_874_150)">
    <path fill-rule="evenodd" clip-rule="evenodd" d="M40.5703 28.0244L53.1332 41.3315C53.1332 41.3315 53.5613 41.6334 53.8884 41.2812C54.2158 40.9291 53.9641 40.577 53.9641 40.577L40.5703 28.0244ZM44.5481 29.2822L54.1151 39.5958C54.1151 39.5958 54.5431 39.8977 54.8704 39.5454C55.1977 39.1933 54.9459 38.8412 54.9459 38.8412L44.5481 29.2822ZM41.7536 31.9737L51.3205 42.2875C51.3205 42.2875 51.7485 42.5894 52.0758 42.2372C52.4031 41.8849 52.1513 41.5328 52.1513 41.5328L41.7536 31.9737ZM47.9109 30.3639L54.5948 37.5694C54.5948 37.5694 54.8937 37.7802 55.1224 37.5343C55.3511 37.2882 55.1751 37.0422 55.1751 37.0422L47.9109 30.3639ZM42.6742 35.093L49.3581 42.2986C49.3581 42.2986 49.6571 42.5094 49.8857 42.2635C50.1144 42.0174 49.9385 41.7713 49.9385 41.7713L42.6742 35.093ZM51.3458 31.9235L54.3751 35.1992C54.3751 35.1992 54.523 35.298 54.6361 35.1828C54.7492 35.0674 54.6622 34.9521 54.6622 34.9521L51.3457 31.9235H51.3458ZM44.3467 38.4136L47.376 41.6893C47.376 41.6893 47.524 41.7881 47.6371 41.6729C47.7502 41.5575 47.6632 41.4422 47.6632 41.4422L44.3467 38.4136Z" fill="#DF4F4F"></path>
    <path fill-rule="evenodd" clip-rule="evenodd" d="M57.2452 33.4126V42.2456H59.2437V39.3964H60.7425L62.6696 42.2456H64.9535L62.8123 39.1827C62.8123 39.1827 64.7137 38.4311 64.7137 36.3927C64.7137 33.5149 62.0986 33.4128 62.0986 33.4128L57.2452 33.4126ZM59.2437 35.1224V37.6869H61.8131C61.8131 37.6869 62.7952 37.6866 62.7952 36.4044C62.7952 35.0736 61.599 35.1224 61.599 35.1224H59.2437ZM35.1195 33.4128V42.2456H41.8286V40.5359H37.118V38.6842H41.1863V36.9746H37.118V35.121H41.8286V33.4128H35.1196H35.1195ZM25.4128 33.4128V35.1224H28.0535V42.2456H30.052V35.1224H32.6928V33.4128H25.4128ZM16.277 33.4128V42.2456H22.9861V40.5359H18.2754V38.6842H22.3437V36.9746H18.2754V35.121H22.9861V33.4128H16.277ZM5 33.4126V42.2458L6.99709 42.2457V36.6893L9.4238 40.2509L11.8518 36.6893V42.2458H13.8503V33.4126H11.8518L9.42392 37.0454L6.99709 33.4126H5Z" fill="#26262C"></path>
  </g>
  <defs>
    <clipPath id="clip0_874_150">
      <rect width="60" height="14.52" fill="white" transform="translate(5 28)"></rect>
    </clipPath>
  </defs>
</svg>
