<?xml version="1.0" encoding="UTF-8"?>
<svg xmlns="http://www.w3.org/2000/svg" width="70" height="70" viewBox="0 0 70 70" fill="none">
  <g clip-path="url(#clip0_874_126)">
    <path d="M33.0363 5.04689C32.9074 5.05861 32.4973 5.09962 32.1282 5.12892C23.6154 5.89642 15.6415 10.4897 10.5913 17.5496C7.77903 21.475 5.98038 25.9277 5.30075 30.644C5.06054 32.2903 5.03125 32.7766 5.03125 35.0088C5.03125 37.241 5.06054 37.7273 5.30075 39.3736C6.9295 50.6284 14.9385 60.0845 25.8007 63.5881C27.7458 64.215 29.7964 64.6426 32.1282 64.9004C33.0363 65 36.9617 65 37.8698 64.9004C41.8948 64.4552 45.3047 63.4592 48.6676 61.7425C49.1832 61.4789 49.2828 61.4086 49.2125 61.35C49.1656 61.3148 46.9686 58.3679 44.3321 54.8057L39.5396 48.3317L33.5343 39.4439C30.23 34.5577 27.5115 30.562 27.488 30.562C27.4646 30.5561 27.4412 34.505 27.4295 39.3268C27.4119 47.7693 27.406 48.1091 27.3006 48.3083C27.1482 48.5954 27.0311 48.7126 26.785 48.8414C26.5975 48.9352 26.4335 48.9528 25.5488 48.9528H24.5352L24.2657 48.7829C24.0899 48.6715 23.961 48.5251 23.8732 48.3552L23.7501 48.0915L23.7618 36.3446L23.7794 24.5919L23.961 24.3634C24.0548 24.2403 24.254 24.0821 24.3946 24.006C24.6348 23.8888 24.7285 23.8771 25.7421 23.8771C26.9373 23.8771 27.1365 23.924 27.447 24.2638C27.5349 24.3575 30.7865 29.2555 34.6768 35.1553C38.567 41.0551 43.8868 49.111 46.4999 53.0656L51.2455 60.2544L51.4857 60.0962C53.6124 58.7135 55.8622 56.745 57.6433 54.6944C61.4339 50.3413 63.8771 45.0332 64.6973 39.3736C64.9375 37.7273 64.9668 37.241 64.9668 35.0088C64.9668 32.7766 64.9375 32.2903 64.6973 30.644C63.0686 19.3892 55.0596 9.93314 44.1973 6.42957C42.2815 5.80854 40.2427 5.38084 37.9577 5.12306C37.3953 5.06447 33.5226 5.00002 33.0363 5.04689ZM45.3047 23.174C45.5859 23.3146 45.8144 23.5841 45.8964 23.8654C45.9433 24.0177 45.955 27.2752 45.9433 34.6163L45.9257 45.1504L44.0685 42.303L42.2054 39.4557V31.7982C42.2054 26.8475 42.2288 24.0646 42.2639 23.9298C42.3577 23.6017 42.5627 23.3439 42.844 23.1916C43.0842 23.0686 43.1721 23.0569 44.0919 23.0569C44.959 23.0569 45.1113 23.0686 45.3047 23.174Z" fill="black"></path>
    <path d="M50.9541 60.3833C50.749 60.5122 50.6846 60.6001 50.8662 60.5005C50.9951 60.4243 51.206 60.2661 51.1708 60.2603C51.1533 60.2603 51.0537 60.3188 50.9541 60.3833ZM50.5498 60.6469C50.4443 60.729 50.4443 60.7348 50.5732 60.6704C50.6435 60.6352 50.7021 60.5942 50.7021 60.5825C50.7021 60.5356 50.6728 60.5473 50.5498 60.6469ZM50.2569 60.8227C50.1514 60.9047 50.1514 60.9106 50.2803 60.8461C50.3506 60.811 50.4092 60.77 50.4092 60.7583C50.4092 60.7114 50.3799 60.7231 50.2569 60.8227ZM49.9639 60.9985C49.8585 61.0805 49.8585 61.0863 49.9874 61.0219C50.0577 60.9867 50.1163 60.9457 50.1163 60.934C50.1163 60.8871 50.087 60.8989 49.9639 60.9985ZM49.5187 61.2328C49.296 61.35 49.3077 61.3969 49.5304 61.2855C49.63 61.2328 49.7061 61.1801 49.7061 61.1684C49.7061 61.1274 49.7003 61.1332 49.5187 61.2328Z" fill="black"></path>
  </g>
  <defs>
    <clipPath id="clip0_874_126">
      <rect width="60" height="60" fill="white" transform="translate(5 5)"></rect>
    </clipPath>
  </defs>
</svg>
