<?xml version="1.0" encoding="UTF-8"?>
<svg xmlns="http://www.w3.org/2000/svg" width="70" height="70" viewBox="0 0 70 70" fill="none">
  <g clip-path="url(#clip0_874_79)">
    <path d="M65 35.1902C65 31.2154 60.0224 27.4486 52.391 25.1127C54.1521 17.3345 53.3693 11.1461 49.9205 9.16488C49.1256 8.70014 48.1961 8.48 47.181 8.48V11.2073C47.7436 11.2073 48.1961 11.3173 48.5752 11.5253C50.2385 12.4792 50.9601 16.1115 50.3975 20.7833C50.2629 21.9329 50.0428 23.1437 49.7737 24.3789C47.3767 23.7919 44.7595 23.3394 42.0077 23.0458C40.3567 20.7833 38.6445 18.7287 36.9201 16.9309C40.9071 13.2252 44.6494 11.195 47.1932 11.195V8.46777C43.83 8.46777 39.4272 10.8648 34.9755 15.023C30.5238 10.8893 26.1211 8.51669 22.7578 8.51669V11.244C25.2894 11.244 29.044 13.2619 33.031 16.9431C31.3188 18.7409 29.6066 20.7833 27.98 23.0458C25.2161 23.3394 22.5989 23.7919 20.2018 24.3911C19.9205 23.1681 19.7126 21.9818 19.5658 20.8445C18.991 16.1726 19.7004 12.5403 21.3514 11.5742C21.7183 11.354 22.1953 11.2562 22.7578 11.2562V8.52892C21.7305 8.52892 20.8011 8.74906 19.9939 9.2138C16.5573 11.195 15.7868 17.3712 17.5601 25.1249C9.95312 27.4731 5 31.2277 5 35.1902C5 39.1649 9.97758 42.9317 17.609 45.2676C15.8479 53.0458 16.6307 59.2342 20.0795 61.2154C20.8744 61.6802 21.8039 61.9003 22.8312 61.9003C26.1945 61.9003 30.5972 59.5032 35.0489 55.3451C39.5006 59.4788 43.9034 61.8514 47.2666 61.8514C48.2939 61.8514 49.2234 61.6312 50.0306 61.1665C53.4672 59.1853 54.2377 53.0092 52.4643 45.2554C60.0469 42.9195 65 39.1527 65 35.1902ZM49.0766 27.0328C48.6241 28.6105 48.0616 30.237 47.4256 31.8636C46.9242 30.8852 46.3983 29.9068 45.8235 28.9284C45.2609 27.95 44.6616 26.9961 44.0624 26.0666C45.799 26.3235 47.4745 26.6414 49.0766 27.0328ZM43.4753 40.0577C42.5214 41.7087 41.543 43.2741 40.5279 44.7295C38.7057 44.8885 36.8589 44.9741 35 44.9741C33.1533 44.9741 31.3066 44.8885 29.4965 44.7417C28.4815 43.2864 27.4908 41.7332 26.5369 40.0944C25.6074 38.4922 24.7636 36.8657 23.9931 35.2268C24.7513 33.588 25.6074 31.9492 26.5247 30.3471C27.4786 28.6961 28.457 27.1306 29.4721 25.6753C31.2943 25.5163 33.1411 25.4307 35 25.4307C36.8467 25.4307 38.6934 25.5163 40.5035 25.663C41.5186 27.1184 42.5092 28.6716 43.4631 30.3104C44.3926 31.9125 45.2364 33.5391 46.0069 35.1779C45.2364 36.8167 44.3926 38.4555 43.4753 40.0577ZM47.4256 38.4678C48.086 40.1066 48.6486 41.7454 49.1133 43.3353C47.5112 43.7266 45.8235 44.0569 44.0746 44.3137C44.6739 43.372 45.2731 42.4058 45.8357 41.4152C46.3983 40.4368 46.9242 39.4462 47.4256 38.4678ZM35.0245 51.5171C33.8871 50.343 32.7497 49.0344 31.6245 47.6035C32.7252 47.6524 33.8504 47.6891 34.9878 47.6891C36.1374 47.6891 37.2748 47.6647 38.3877 47.6035C37.287 49.0344 36.1496 50.343 35.0245 51.5171ZM25.9254 44.3137C24.1887 44.0569 22.5132 43.7389 20.9111 43.3475C21.3636 41.7699 21.9262 40.1433 22.5622 38.5167C23.0636 39.4951 23.5895 40.4735 24.1643 41.4519C24.7391 42.4303 25.3261 43.3842 25.9254 44.3137ZM34.9633 18.8632C36.1007 20.0373 37.2381 21.3459 38.3632 22.7768C37.2625 22.7279 36.1374 22.6912 35 22.6912C33.8504 22.6912 32.713 22.7156 31.6001 22.7768C32.7008 21.3459 33.8382 20.0373 34.9633 18.8632ZM25.9132 26.0666C25.3139 27.0083 24.7146 27.9745 24.1521 28.9651C23.5895 29.9435 23.0636 30.9219 22.5622 31.9003C21.9018 30.2615 21.3392 28.6227 20.8744 27.0328C22.4766 26.6537 24.1643 26.3235 25.9132 26.0666ZM14.8451 41.3785C10.5157 39.5318 7.71504 37.1103 7.71504 35.1902C7.71504 33.2701 10.5157 30.8363 14.8451 29.0018C15.8969 28.5493 17.0465 28.1457 18.2328 27.7666C18.9299 30.1637 19.8471 32.6586 20.9845 35.2146C19.8594 37.7584 18.9543 40.2411 18.2695 42.6259C17.0587 42.2468 15.9091 41.831 14.8451 41.3785ZM21.4248 58.8551C19.7615 57.9011 19.04 54.2688 19.6025 49.597C19.7371 48.4474 19.9572 47.2366 20.2263 46.0014C22.6233 46.5884 25.2405 47.041 27.9923 47.3345C29.6433 49.597 31.3555 51.6516 33.0799 53.4494C29.0929 57.1551 25.3506 59.1853 22.8068 59.1853C22.2564 59.173 21.7917 59.063 21.4248 58.8551ZM50.4342 49.5359C51.009 54.2077 50.2996 57.84 48.6486 58.8061C48.2817 59.0263 47.8047 59.1241 47.2421 59.1241C44.7106 59.1241 40.956 57.1062 36.969 53.425C38.6812 51.6272 40.3934 49.5848 42.02 47.3222C44.7839 47.0287 47.4011 46.5762 49.7982 45.9769C50.0795 47.2122 50.2996 48.3985 50.4342 49.5359ZM55.1427 41.3785C54.0909 41.831 52.9413 42.2346 51.755 42.6137C51.0579 40.2167 50.1406 37.7217 49.0033 35.1657C50.1284 32.6219 51.0334 30.1392 51.7183 27.7544C52.9291 28.1335 54.0787 28.5493 55.1549 29.0018C59.4843 30.8485 62.285 33.2701 62.285 35.1902C62.2727 37.1103 59.4721 39.544 55.1427 41.3785Z" fill="#61DAFB"></path>
    <path d="M34.9875 40.7792C38.0743 40.7792 40.5766 38.2769 40.5766 35.1901C40.5766 32.1034 38.0743 29.6011 34.9875 29.6011C31.9007 29.6011 29.3984 32.1034 29.3984 35.1901C29.3984 38.2769 31.9007 40.7792 34.9875 40.7792Z" fill="#61DAFB"></path>
  </g>
  <defs>
    <clipPath id="clip0_874_79">
      <rect width="60" height="68.3683" fill="white" transform="translate(5 1)"></rect>
    </clipPath>
  </defs>
</svg>
