<?xml version="1.0" encoding="UTF-8"?>
<svg xmlns="http://www.w3.org/2000/svg" width="70" height="70" viewBox="0 0 70 70" fill="none">
  <path d="M42.882 32.6577L29.7304 36.9522L18.2887 42.002L15.0877 42.8471C14.2725 43.6225 13.4177 44.4079 12.4932 45.2031C11.4792 46.0779 10.5349 46.8732 9.8091 47.4497C9.00396 48.0859 7.81105 49.2788 7.20472 50.0342C6.30006 51.1674 5.58436 52.3702 5.27617 53.2948C4.72939 54.9649 4.99792 56.6548 6.0516 58.2156C7.40353 60.2036 10.0975 62.2315 13.2387 63.6132C14.8393 64.3192 17.5332 65.2237 19.561 65.7306C22.9308 66.5856 29.452 67.5101 33.0406 67.6493C33.7661 67.6791 34.7404 67.6791 34.7801 67.6493C34.8597 67.5995 35.4164 66.5359 36.0626 65.2139C38.2695 60.7106 39.86 56.4858 40.7247 52.8774C41.2416 50.6905 41.6492 47.7778 41.9175 44.3285C41.9872 43.3642 42.0169 40.1335 41.9573 39.0399C41.8677 37.2506 41.7087 35.7993 41.4603 34.3778C41.4206 34.169 41.4105 33.9801 41.4305 33.9702C41.4701 33.9404 41.5894 33.9006 43.2098 33.4333L42.8819 32.658V32.6578H42.882V32.6577ZM39.8799 34.4173C39.9992 34.4173 40.3172 37.4691 40.3967 39.3977C40.4167 39.8052 40.4066 40.0736 40.3868 40.0736C40.3074 40.0736 38.7068 39.1294 37.5638 38.4137C36.5697 37.7873 34.681 36.5348 34.3828 36.2962C34.2832 36.2267 34.2931 36.2168 35.1084 35.9383C36.49 35.471 39.7706 34.4173 39.8799 34.4173ZM33.1799 36.6242C33.2694 36.6242 33.4979 36.7533 34.0447 37.0914C36.0924 38.3737 38.8759 39.9246 40.0688 40.4416C40.4365 40.6006 40.4762 40.5408 39.6314 41.1175C37.8221 42.3501 35.5654 43.5628 32.8019 44.7856C32.3149 45.0043 31.9074 45.1732 31.8975 45.1732C31.8777 45.1732 31.9371 44.9248 32.0166 44.6266C32.6826 42.1511 33.0605 39.6461 33.0804 37.6381C33.0903 36.644 33.0903 36.644 33.1799 36.6143C33.1599 36.6242 33.1698 36.6242 33.1799 36.6242ZM31.7981 37.151C31.8576 37.2106 31.818 39.4374 31.7384 40.0438C31.5595 41.4951 31.2811 42.847 30.824 44.3681C30.7146 44.7357 30.6151 45.044 30.5954 45.0638C30.5554 45.1135 29.1935 43.7814 28.7462 43.2645C27.9708 42.3698 27.3646 41.4752 26.9172 40.6004C26.6885 40.1531 26.3308 39.2784 26.3605 39.2485C26.5195 39.1392 31.7584 37.1113 31.7981 37.151ZM25.2968 39.7058C25.3067 39.7058 25.3166 39.7058 25.3267 39.7157C25.3465 39.7356 25.4162 39.8947 25.4758 40.0735C25.7938 40.9384 26.5094 42.2108 27.126 43.026C27.8019 43.9207 28.6867 44.8749 29.4221 45.5012C29.6608 45.7 29.8794 45.8888 29.9092 45.9187C29.9689 45.9784 29.9888 45.9683 28.3684 46.5848C26.4898 47.3005 24.4419 48.0162 22.0958 48.7716C21.5354 48.9523 20.9755 49.1346 20.4161 49.3184C20.3264 49.3483 20.3563 49.2985 20.6148 48.891C21.7778 47.0718 23.5472 43.5031 24.5413 40.9782C24.7104 40.5408 24.8793 40.1034 24.9092 40.004C24.949 39.8647 24.9986 39.8151 25.1278 39.7455C25.1974 39.7258 25.267 39.7058 25.2968 39.7058ZM23.3088 40.5308C23.3386 40.5508 22.8316 41.6144 22.3345 42.5886C21.3702 44.4673 20.3165 46.3165 18.905 48.563C18.6664 48.9506 18.4379 49.3086 18.408 49.3483C18.3583 49.418 18.3383 49.398 18.1793 49.0899C17.8413 48.4238 17.5629 47.5689 17.4138 46.7835C17.2647 46.0081 17.2946 44.6563 17.4636 43.8213C17.5927 43.205 17.5829 43.2149 17.8811 43.0658C19.1535 42.4197 23.269 40.4911 23.3088 40.5308ZM40.4565 41.2268V41.6443C40.4565 43.8611 40.2179 46.9029 39.8699 49.1198C39.8102 49.5074 39.7604 49.8254 39.7506 49.8355C39.7506 49.8355 39.4623 49.7561 39.1244 49.6565C37.6333 49.1892 36.0129 48.5033 34.5516 47.6983C33.5872 47.1714 32.1857 46.3064 32.2255 46.2666C32.2353 46.2568 32.6529 46.0381 33.1399 45.7796C35.0885 44.7657 36.9572 43.6722 38.5776 42.5887C39.184 42.1811 40.0984 41.5251 40.2974 41.3461L40.4565 41.2268ZM15.8034 44.1691C15.8432 44.1691 15.8332 44.2486 15.7736 44.6065C15.7338 44.865 15.6841 45.3422 15.6644 45.6701C15.5847 47.1215 15.8234 48.1951 16.5391 49.6663C16.7379 50.0739 16.8971 50.4119 16.887 50.4217C16.8174 50.4815 10.2367 52.4101 8.16893 52.9766C7.55265 53.1455 7.01595 53.2947 6.97598 53.3045C6.90653 53.3245 6.89654 53.3146 6.92633 53.1454C7.15494 51.6843 8.26836 49.7756 9.81905 48.1652C10.8529 47.0916 11.6781 46.4654 13.0896 45.6601C14.1036 45.0836 15.6642 44.2189 15.7835 44.179C15.7836 44.1691 15.7935 44.1691 15.8034 44.1691ZM31.311 46.9426C31.3209 46.9326 31.5595 47.062 31.8477 47.2309C33.9751 48.4636 36.9374 49.6068 39.4622 50.1932L39.691 50.243L39.3728 50.4217C38.0507 51.1574 33.7066 52.9666 29.2632 54.6268C28.617 54.8652 27.9808 55.1039 27.8614 55.1536C27.7421 55.2032 27.6327 55.2331 27.6327 55.2232C27.6327 55.2131 27.8118 54.8652 28.0402 54.4379C29.2828 52.1117 30.5355 49.2787 31.1716 47.3104C31.2514 47.1215 31.3009 46.9526 31.311 46.9426ZM29.7304 47.4595C29.7405 47.4697 29.6609 47.6782 29.5614 47.9168C28.6966 50.0143 27.5632 52.3008 26.112 54.8654C25.7442 55.5216 25.436 56.0485 25.4259 56.0485C25.4162 56.0485 25.1178 55.8694 24.76 55.6508C22.6524 54.3584 20.7837 52.7679 19.5611 51.2271L19.382 51.0084L20.2866 50.7599C23.5273 49.8752 26.2807 48.9209 29.0146 47.748C29.4023 47.5889 29.7205 47.4595 29.7304 47.4595ZM39.5519 50.8891C39.5618 51.1177 39.0548 53.1656 38.6372 54.6466C38.2893 55.8892 37.991 56.8635 37.4444 58.5831C37.2058 59.3388 36.9972 59.9648 36.9871 59.9648C36.9772 59.9648 36.9176 59.9549 36.8579 59.9352C33.9056 59.3982 31.2613 58.6527 28.7761 57.6587C28.0802 57.3803 27.0862 56.9329 27.0265 56.8833C27.0067 56.8632 27.6032 56.585 28.3587 56.257C32.8817 54.2788 37.5737 52.0321 39.184 51.068C39.3728 50.9487 39.522 50.8891 39.5519 50.8891ZM16.8771 51.6645C16.897 51.6843 15.6345 53.5035 13.865 55.9787C13.2487 56.8436 12.533 57.8575 12.2646 58.2352C11.9962 58.613 11.5887 59.2095 11.36 59.5674L10.9423 60.2135L10.495 59.8358C9.96807 59.3983 9.05365 58.4639 8.64608 57.947C7.79111 56.8835 7.21467 55.7601 6.98602 54.7363C6.87664 54.2591 6.87664 54.0204 6.97593 53.9907C7.125 53.951 9.77921 53.3247 12.2645 52.748C13.6463 52.43 15.2466 52.0523 15.8232 51.9131C16.3998 51.7737 16.8672 51.6645 16.8771 51.6645ZM18.1494 52.1516L18.4674 52.5095C19.8991 54.1099 21.3603 55.2931 23.1298 56.3267C23.448 56.5057 23.6865 56.6647 23.6665 56.6748C23.5971 56.7244 17.5231 58.8814 14.7099 59.8556C13.1295 60.4122 11.8271 60.8596 11.8173 60.8596C11.8074 60.8596 11.7179 60.8 11.6183 60.7304L11.4395 60.6011L11.7277 60.1837C12.6621 58.8317 13.8353 57.3506 16.39 54.269L18.1494 52.1516ZM26.0823 57.8277C26.092 57.8178 26.5294 57.9767 27.0662 58.1758C28.3587 58.6628 29.3824 58.9709 30.7543 59.3189C32.4443 59.7464 34.8896 60.1639 36.3311 60.2831C36.5498 60.3029 36.6691 60.3229 36.6293 60.3528C36.5596 60.3925 35.0985 60.8796 34.0248 61.2176C32.3149 61.7543 27.0961 63.2951 22.8415 64.5179C22.0562 64.7465 21.3802 64.9354 21.3404 64.9453C21.2411 64.9653 20.913 64.8756 20.913 64.8359C20.913 64.8161 21.1515 64.508 21.4399 64.17C22.8712 62.4601 24.2929 60.5516 25.4758 58.7423C25.8038 58.2451 26.0823 57.8376 26.0823 57.8277ZM24.3325 57.8775C24.3424 57.8874 23.6367 59.0206 22.4042 60.9689C21.8772 61.794 21.2907 62.7284 21.0819 63.0565C20.8831 63.3746 20.5849 63.8717 20.416 64.15L20.1276 64.657L19.9786 64.6172C19.6206 64.5178 17.1057 63.633 16.4396 63.3646C15.6145 63.0366 14.7596 62.639 14.1233 62.3011C13.3282 61.8735 12.3342 61.2373 12.4136 61.2175C12.4335 61.2076 13.7954 60.8397 15.4355 60.3924C19.7896 59.2094 22.2051 58.5235 23.7858 58.0265C24.0742 57.937 24.3226 57.8674 24.3325 57.8775ZM36.7088 60.78H36.7187C36.7584 60.8795 35.1482 65.3528 34.5614 66.7644C34.4324 67.0824 34.3828 67.1621 34.3131 67.152C34.1441 67.1422 31.8081 66.8141 30.3864 66.6053C27.9113 66.2276 23.756 65.5018 22.7123 65.2634L22.4738 65.2137L23.9547 64.8755C27.1359 64.1598 28.6667 63.7722 30.2174 63.295C32.1758 62.6986 34.1143 61.953 36.0725 61.0385C36.3807 60.8993 36.6392 60.79 36.7088 60.78Z" fill="url(#paint0_linear_875_677)"></path>
  <path d="M29.3212 2.00051C29.1025 1.97085 25.5734 3.24324 23.2971 4.16761C20.2253 5.4203 17.8397 6.61325 16.3684 7.64686C15.8218 8.03471 15.1357 8.72053 15.0265 8.98888C14.9868 9.08831 14.9668 9.20758 14.9668 9.32686L16.2989 10.5894L19.4699 11.6033L27.015 12.9553L35.6434 14.4365L35.733 13.6909C35.7032 13.6909 35.6832 13.681 35.6537 13.681L34.5201 13.502L34.2916 13.0945C33.1186 11.0268 31.8263 8.46204 31.0709 6.73234C30.4844 5.39032 29.9277 3.83972 29.6195 2.7263C29.4504 2.05034 29.4306 2.01059 29.3214 2.00069V2.00046H29.3212V2.00051ZM29.162 2.50764H29.1722C29.182 2.51745 29.2217 2.79598 29.2616 3.12383C29.4304 4.51573 29.7388 5.85752 30.2258 7.30892C30.5936 8.40244 30.5936 8.34285 30.1662 8.21354C29.1523 7.93528 24.6094 7.14995 21.319 6.69269C20.7921 6.62306 20.3447 6.55352 20.3447 6.54361C20.305 6.50387 22.7205 5.24129 23.7842 4.74438C25.1461 4.11797 28.8838 2.55729 29.162 2.50764ZM19.5792 6.96104L19.967 7.09012C22.0743 7.80597 27.3726 8.81996 30.2953 9.05851C30.6233 9.08835 30.9018 9.11824 30.9115 9.11824C30.9214 9.12814 30.6433 9.27726 30.2853 9.44618C28.8739 10.152 27.323 11.0169 26.2494 11.6829C25.9314 11.8816 25.643 12.0408 25.6033 12.0408C25.5635 12.0408 25.3549 12.001 25.1362 11.9712L24.7386 11.9114L23.7446 10.9372C21.995 9.23743 20.6231 7.92529 20.0962 7.42815L19.5792 6.96104ZM19.1817 7.26913L20.5833 9.01877C21.3487 9.98302 22.124 10.9273 22.2932 11.136C22.462 11.3449 22.6013 11.514 22.5914 11.5239C22.5516 11.5536 20.5636 11.1659 19.5097 10.9274C18.4262 10.6788 17.9789 10.5596 17.3129 10.3509L16.7661 10.1719V10.0326C16.776 9.36656 17.621 8.37256 19.0525 7.3587L19.1817 7.26913ZM31.0906 9.65494C31.1304 9.65494 31.18 9.74438 31.2993 10.0128C31.6373 10.7583 32.6912 12.7664 32.9494 13.154C33.0292 13.2834 33.1681 13.2933 31.7666 13.0646C28.3968 12.5178 27.3131 12.339 27.3131 12.3191C27.3131 12.3092 27.4126 12.2396 27.5418 12.17C28.5856 11.5935 29.6393 10.8578 30.5738 10.0725C30.8024 9.88359 31.0112 9.70468 31.0508 9.67479C31.0607 9.65494 31.0807 9.64504 31.0906 9.65494Z" fill="url(#paint1_linear_875_677)"></path>
  <path d="M15.0982 8.84985C15.0982 8.84985 14.8796 9.19792 15.0883 9.71486C15.2177 10.0329 15.5953 10.4205 16.0227 10.8182C16.0227 10.8182 20.4463 15.1324 20.9831 15.7488C23.4285 18.5719 24.4922 21.3553 24.5916 25.1925C24.6513 27.6578 24.1839 29.8249 23.0209 32.3399C20.9533 36.853 16.5892 41.8334 9.85938 47.3604L10.8437 47.0323C11.4798 46.5551 12.3447 46.0483 14.3725 44.9349C19.0545 42.37 24.3232 40.0141 30.7847 37.5886C40.089 34.0894 55.3879 29.9937 64.0958 28.6618L65.0006 28.5225L64.8613 28.3038C64.0662 27.0711 63.5193 26.3058 62.8631 25.4907C60.9547 23.1247 58.6386 21.2063 55.8054 19.6157C51.9086 17.4388 46.8685 15.7389 40.4867 14.4764C39.2839 14.2378 36.6397 13.7805 34.4925 13.4525C29.9396 12.7469 26.9971 12.2597 23.7565 11.703C22.5936 11.5041 20.8538 11.206 19.7007 10.9575C19.1042 10.8281 17.9612 10.5598 17.0665 10.2517C16.3508 9.97317 15.3169 9.69483 15.0982 8.84985ZM17.663 11.3351C17.6728 11.3253 17.8318 11.3848 18.0407 11.4544C18.4185 11.5835 18.9055 11.7327 19.4822 11.8918C19.9185 12.0118 20.3559 12.1278 20.7944 12.2397C21.3908 12.3887 21.8878 12.528 21.8977 12.528C21.9674 12.5976 22.9714 15.8082 23.3094 17.0409C23.4385 17.5082 23.5381 17.9058 23.5281 17.9058C23.5179 17.9158 23.4087 17.7467 23.2795 17.5181C22.1164 15.4703 20.2774 13.3927 18.15 11.7226C17.8718 11.524 17.663 11.345 17.663 11.3351ZM22.5538 12.6871C22.6036 12.6871 22.8223 12.7169 23.0905 12.7765C24.7805 13.1542 27.8125 13.7308 29.7508 14.0589C30.0789 14.1085 30.3374 14.1683 30.3374 14.1881C30.3374 14.208 30.218 14.2775 30.0689 14.3571C29.741 14.526 28.4187 15.3113 27.9815 15.6096C26.878 16.3452 25.884 17.1404 25.1682 17.8561C24.88 18.1445 24.6313 18.383 24.6313 18.383C24.6313 18.383 24.5719 18.2141 24.5219 18.0052C24.1643 16.6234 23.4186 14.5756 22.7426 13.1343C22.6333 12.9057 22.5437 12.6969 22.5437 12.6771C22.5437 12.697 22.5437 12.6871 22.5538 12.6871ZM31.1624 14.3273C31.2221 14.3471 31.3215 14.6851 31.5203 15.4306C31.8881 16.8721 32.0571 18.4825 31.9975 19.9835C31.9775 20.401 31.9577 20.7887 31.9377 20.8385L31.908 20.9378L31.3911 20.7689C30.3274 20.4309 28.5978 19.9238 27.1167 19.5064C26.2716 19.2777 25.5858 19.069 25.5858 19.0491C25.5858 18.9894 26.8185 17.7568 27.3453 17.2896C28.3491 16.4048 31.0729 14.2974 31.1624 14.3273ZM31.8483 14.4266C31.8782 14.3969 35.9638 15.1025 37.8228 15.4605C39.2046 15.7288 41.2126 16.1464 41.3318 16.1961C41.3914 16.2159 41.1826 16.3352 40.5166 16.6334C37.8923 17.8165 35.9438 18.88 34.0056 20.1724C33.4986 20.5104 33.0711 20.7887 33.0612 20.7887C33.0513 20.7887 33.0413 20.5005 33.0413 20.1525C33.0413 18.2638 32.6636 16.3552 31.9676 14.7448C31.898 14.5857 31.8384 14.4367 31.8483 14.4266ZM42.4153 16.5142C42.4452 16.544 42.3159 17.3493 42.1966 17.8264C41.8387 19.3076 40.8745 21.5046 39.6917 23.5721C39.4828 23.94 39.294 24.2382 39.2739 24.2481C39.2543 24.258 38.9858 24.1088 38.6776 23.9299C37.5245 23.254 36.2124 22.6178 34.7808 22.0213C34.3834 21.8523 34.0353 21.7131 34.0254 21.6934C33.9557 21.6336 37.1567 19.5163 38.8466 18.5023C40.1886 17.6872 42.3755 16.4744 42.4153 16.5142ZM43.1707 16.6335C43.2603 16.6335 45.0695 17.1306 46.0137 17.4089C48.3499 18.1048 51.0338 19.0889 52.7834 19.8841L53.5089 20.2123L53.0021 20.3315C48.7277 21.3155 45.0695 22.4489 41.5405 23.8803C41.2522 23.9996 40.9937 24.099 40.974 24.099C40.954 24.099 41.0535 23.8704 41.1827 23.592C42.2464 21.3355 42.9323 18.9795 43.1011 16.9714C43.1112 16.7825 43.1408 16.6335 43.1707 16.6335ZM25.1583 20.7689C25.188 20.739 26.5699 21.0671 27.3154 21.2757C28.4486 21.5939 30.8542 22.399 30.8542 22.4587C30.8542 22.4686 30.5859 22.6973 30.2679 22.9757C28.9657 24.0592 27.713 25.2023 26.2119 26.6537C25.7645 27.0813 25.3869 27.4292 25.3671 27.4292C25.3471 27.4292 25.3373 27.3694 25.3471 27.2899C25.5757 25.6198 25.5262 23.4727 25.208 21.2957C25.1781 21.0172 25.1483 20.7788 25.1583 20.7689ZM54.1951 20.7988C54.2148 20.8185 53.5588 21.8523 53.1413 22.4388C52.545 23.2937 51.67 24.4271 49.6918 26.9123C48.6482 28.2243 47.475 29.7056 47.0875 30.2026C46.6897 30.6996 46.3618 31.117 46.3517 31.117C46.3418 31.117 46.2127 30.9382 46.0735 30.7195C44.9601 29.0494 43.6279 27.5881 42.0474 26.276C41.7492 26.0274 41.4213 25.759 41.3119 25.6795C41.2025 25.6 41.113 25.5205 41.113 25.5106C41.113 25.4808 42.8028 24.755 44.0853 24.2382C46.332 23.3236 49.3934 22.2301 51.6899 21.5243C52.8927 21.1466 54.1751 20.7788 54.1951 20.7988ZM54.9605 20.9974C55.0001 20.9876 55.2388 21.1068 55.5271 21.2757C57.9428 22.6574 60.3085 24.4369 62.1775 26.266C62.7043 26.783 64.0065 28.135 63.9865 28.1449C63.9865 28.1449 63.5293 28.1846 62.9926 28.2243C58.8075 28.5425 53.4496 29.4271 48.3002 30.6697C47.9524 30.7491 47.6443 30.8187 47.6243 30.8187C47.6046 30.8187 47.9921 30.4311 48.4793 29.9639C51.5012 27.0513 52.8831 25.2123 54.5132 21.9318C54.7418 21.4448 54.9407 21.0273 54.9605 20.9974C54.9506 20.9974 54.9506 20.9974 54.9605 20.9974ZM32.8225 23.264C32.9618 23.2937 34.254 23.9003 35.2282 24.3873C36.1229 24.8345 37.4649 25.5503 37.5345 25.6099C37.5444 25.6198 37.0671 25.8683 36.4809 26.1567C34.6119 27.0911 33.0115 27.9757 31.3413 28.9897C30.8642 29.278 30.4666 29.5167 30.4567 29.5167C30.4169 29.5167 30.4268 29.4768 30.6953 28.9897C31.59 27.3596 32.3056 25.4112 32.7133 23.5124C32.7529 23.3633 32.7927 23.264 32.8225 23.264ZM31.5302 23.5025C31.56 23.5324 31.2221 24.755 31.0134 25.4211C30.6057 26.6836 29.9198 28.2641 29.2539 29.457C29.0947 29.7352 28.8561 30.1428 28.7269 30.3714L28.4785 30.769L27.9218 30.2324C27.2757 29.6061 26.7487 29.2184 26.0729 28.8704C25.8043 28.7313 25.5957 28.6119 25.5957 28.5922C25.5957 28.5126 27.2955 26.9719 28.5977 25.8585C29.5321 25.0532 31.5004 23.4727 31.5302 23.5025ZM39.4332 26.7532L39.9204 27.0712C41.0335 27.797 42.3456 28.7611 43.3498 29.6061C43.9163 30.0732 45.0097 31.0575 45.2286 31.296L45.3477 31.4254L44.5427 31.6539C39.9898 32.9163 36.4708 34.0396 32.3652 35.5507C31.908 35.7196 31.5203 35.8588 31.4904 35.8588C31.4309 35.8588 31.381 35.9084 32.4051 34.964C35.0295 32.5487 37.3555 29.8844 39.0852 27.2898L39.4332 26.7532ZM37.3556 27.2701C37.3754 27.2899 36.0135 29.2084 35.1983 30.292C34.2242 31.5843 32.4944 33.7513 31.3016 35.1628C30.8046 35.7494 30.3773 36.2365 30.3573 36.2465C30.3274 36.2564 30.3175 36.1073 30.3175 35.8786C30.3175 34.6757 30.0094 33.3934 29.4725 32.3C29.2439 31.8427 29.2041 31.7333 29.2539 31.6837C29.4428 31.5146 32.3355 29.8645 34.1645 28.8804C35.3972 28.2243 37.3255 27.2502 37.3556 27.2701ZM24.7904 30.3517C24.8203 30.3517 25.0489 30.4709 25.3074 30.6102C25.9436 30.958 26.5102 31.3457 27.0172 31.7633C27.037 31.7831 26.7786 31.992 26.4406 32.2403C25.4962 32.9163 24.0648 33.9999 23.2299 34.666C22.3549 35.3618 22.3253 35.3817 22.4246 35.2326C23.0808 34.2286 23.4087 33.6619 23.7567 32.9363C24.0648 32.2903 24.3729 31.5248 24.5916 30.8587C24.6711 30.5704 24.7706 30.3517 24.7904 30.3517ZM28.1405 32.976C28.1901 32.9662 28.2499 33.0555 28.5182 33.4532C29.0848 34.298 29.5222 35.4314 29.6317 36.3459L29.6514 36.5448L28.2897 37.0717C25.8541 38.016 23.6076 38.9505 22.0865 39.6462C21.6592 39.8451 20.9136 40.2029 20.4266 40.4416C19.9394 40.69 19.5418 40.8789 19.5418 40.869C19.5418 40.8591 19.8499 40.6305 20.2276 40.352C23.2001 38.195 25.7746 35.829 27.7031 33.4632C27.9119 33.2146 28.1008 32.9859 28.1205 32.976L28.1405 32.976ZM26.5997 33.3538C26.6395 33.3935 25.5063 34.6758 24.7309 35.4611C22.8124 37.4196 20.9137 38.9505 18.5576 40.4416C18.2594 40.6305 17.9911 40.7994 17.9612 40.8194C17.8916 40.8591 17.981 40.7596 19.0149 39.6363C19.6711 38.9305 20.168 38.3341 20.7346 37.5986C21.1124 37.1116 21.182 37.0419 21.7288 36.6541C23.1901 35.6003 26.56 33.314 26.5997 33.3538Z" fill="url(#paint2_radial_875_677)"></path>
  <defs>
    <linearGradient id="paint0_linear_875_677" x1="14.8945" y1="61.1754" x2="19.6501" y2="58.3654" gradientUnits="userSpaceOnUse">
      <stop stop-color="#909CA9"></stop>
      <stop offset="1" stop-color="#EDEDEE"></stop>
    </linearGradient>
    <linearGradient id="paint1_linear_875_677" x1="15.0017" y1="8.19904" x2="18.8282" y2="8.19904" gradientUnits="userSpaceOnUse">
      <stop stop-color="#939FAB"></stop>
      <stop offset="1" stop-color="#DCDEE1"></stop>
    </linearGradient>
    <radialGradient id="paint2_radial_875_677" cx="0" cy="0" r="1" gradientUnits="userSpaceOnUse" gradientTransform="translate(34.3124 25.7486) rotate(-171.457) scale(4.9334 9.86925)">
      <stop stop-color="#EE352C"></stop>
      <stop offset="1" stop-color="#A91D22"></stop>
    </radialGradient>
  </defs>
</svg>
