<?xml version="1.0" encoding="UTF-8"?>
<svg xmlns="http://www.w3.org/2000/svg" width="70" height="70" viewBox="0 0 70 70" fill="none">
  <g clip-path="url(#clip0_876_954)">
    <path fill-rule="evenodd" clip-rule="evenodd" d="M44.8516 45.7834V26.3903C44.8515 26.0586 44.7197 25.7406 44.4852 25.5061C44.2507 25.2716 43.9326 25.1399 43.601 25.1399H24.2305V5.12183H63.5969C63.7611 5.12179 63.9238 5.15412 64.0755 5.21695C64.2273 5.27978 64.3652 5.3719 64.4813 5.48803C64.5975 5.60416 64.6896 5.74204 64.7525 5.89378C64.8154 6.04552 64.8477 6.20817 64.8477 6.37242V45.7834H44.8516Z" fill="#8E75FF"></path>
    <path opacity="0.405" fill-rule="evenodd" clip-rule="evenodd" d="M24.2301 5.12183V25.1399H5.74244C5.6188 25.1399 5.49794 25.1032 5.39513 25.0345C5.29233 24.9658 5.2122 24.8682 5.16485 24.754C5.11751 24.6397 5.10508 24.5141 5.12914 24.3928C5.15321 24.2715 5.21268 24.1601 5.30004 24.0726L24.2301 5.12183ZM44.8512 64.2905V45.7834H64.8474L45.9188 64.7324C45.8313 64.8199 45.7199 64.8794 45.5986 64.9035C45.4774 64.9277 45.3517 64.9153 45.2374 64.868C45.1232 64.8207 45.0255 64.7406 44.9568 64.6378C44.888 64.535 44.8513 64.4142 44.8512 64.2905ZM24.2301 25.1399H44.2258C44.3916 25.1399 44.5506 25.2058 44.6679 25.323C44.7852 25.4402 44.8511 25.5993 44.8512 25.7651V45.7834H25.4807C25.3165 45.7834 25.1538 45.7511 25.0021 45.6882C24.8504 45.6254 24.7125 45.5333 24.5964 45.4171C24.4803 45.301 24.3882 45.1631 24.3253 45.0114C24.2625 44.8597 24.2301 44.6971 24.2301 44.5328V25.1399Z" fill="#8E75FF"></path>
  </g>
  <defs>
    <clipPath id="clip0_876_954">
      <rect width="60" height="60" fill="white" transform="translate(5 5)"></rect>
    </clipPath>
  </defs>
</svg>
